<mxfile host="app.diagrams.net" modified="2024-06-10T03:08:50.414Z" agent="Mozilla/5.0 (Macintosh; Intel Mac OS X 10_15_7) AppleWebKit/537.36 (KHTML, like Gecko) Chrome/125.0.0.0 Safari/537.36" etag="A7VV9MzBME-F3MdOn7CO" version="24.5.2" type="github">
  <diagram name="Page-1" id="6IrLrsnfuTDO0JxyIeJy">
    <mxGraphModel dx="3392" dy="1921" grid="1" gridSize="10" guides="1" tooltips="1" connect="1" arrows="1" fold="1" page="1" pageScale="1" pageWidth="850" pageHeight="1100" math="0" shadow="0">
      <root>
        <mxCell id="0" />
        <mxCell id="1" parent="0" />
        <mxCell id="_mHrZHotv5pdyZSLupDc-2" value="Availability Zone - (us-east-a1)" style="fillColor=none;strokeColor=#147EBA;dashed=1;verticalAlign=top;fontStyle=0;fontColor=#147EBA;whiteSpace=wrap;html=1;" vertex="1" parent="1">
          <mxGeometry x="-560" y="40" width="860" height="1000" as="geometry" />
        </mxCell>
        <mxCell id="_mHrZHotv5pdyZSLupDc-3" value="VPC - (NextCloud-vpc)" style="points=[[0,0],[0.25,0],[0.5,0],[0.75,0],[1,0],[1,0.25],[1,0.5],[1,0.75],[1,1],[0.75,1],[0.5,1],[0.25,1],[0,1],[0,0.75],[0,0.5],[0,0.25]];outlineConnect=0;gradientColor=none;html=1;whiteSpace=wrap;fontSize=12;fontStyle=0;container=1;pointerEvents=0;collapsible=0;recursiveResize=0;shape=mxgraph.aws4.group;grIcon=mxgraph.aws4.group_vpc2;strokeColor=#8C4FFF;fillColor=none;verticalAlign=top;align=left;spacingLeft=30;fontColor=#AAB7B8;dashed=0;" vertex="1" parent="1">
          <mxGeometry x="-540" y="150" width="815" height="830" as="geometry" />
        </mxCell>
        <mxCell id="_mHrZHotv5pdyZSLupDc-5" value="EC2 -&amp;nbsp;Nextcloud" style="points=[[0,0],[0.25,0],[0.5,0],[0.75,0],[1,0],[1,0.25],[1,0.5],[1,0.75],[1,1],[0.75,1],[0.5,1],[0.25,1],[0,1],[0,0.75],[0,0.5],[0,0.25]];outlineConnect=0;gradientColor=none;html=1;whiteSpace=wrap;fontSize=12;fontStyle=0;container=1;pointerEvents=0;collapsible=0;recursiveResize=0;shape=mxgraph.aws4.group;grIcon=mxgraph.aws4.group_ec2_instance_contents;strokeColor=#D86613;fillColor=none;verticalAlign=top;align=left;spacingLeft=30;fontColor=#D86613;dashed=0;" vertex="1" parent="_mHrZHotv5pdyZSLupDc-3">
          <mxGeometry x="35" y="120" width="790" height="750" as="geometry" />
        </mxCell>
        <mxCell id="_mHrZHotv5pdyZSLupDc-1" value="Security group - (NextcloudSecurityGroup)" style="fillColor=none;strokeColor=#DD3522;verticalAlign=top;fontStyle=0;fontColor=#DD3522;whiteSpace=wrap;html=1;" vertex="1" parent="_mHrZHotv5pdyZSLupDc-5">
          <mxGeometry x="-45" y="-180" width="835" height="930" as="geometry" />
        </mxCell>
        <mxCell id="_mHrZHotv5pdyZSLupDc-4" value="Private subnet -&amp;nbsp;10.0.0.0/20 - a1&amp;nbsp;" style="points=[[0,0],[0.25,0],[0.5,0],[0.75,0],[1,0],[1,0.25],[1,0.5],[1,0.75],[1,1],[0.75,1],[0.5,1],[0.25,1],[0,1],[0,0.75],[0,0.5],[0,0.25]];outlineConnect=0;gradientColor=none;html=1;whiteSpace=wrap;fontSize=12;fontStyle=0;container=1;pointerEvents=0;collapsible=0;recursiveResize=0;shape=mxgraph.aws4.group;grIcon=mxgraph.aws4.group_security_group;grStroke=0;strokeColor=#00A4A6;fillColor=#E6F6F7;verticalAlign=top;align=left;spacingLeft=30;fontColor=#147EBA;dashed=0;" vertex="1" parent="_mHrZHotv5pdyZSLupDc-5">
          <mxGeometry x="25" y="30" width="290" height="250" as="geometry" />
        </mxCell>
        <mxCell id="_mHrZHotv5pdyZSLupDc-6" value="Public&amp;nbsp;Elastic IP -&amp;nbsp;18.215.96.66" style="points=[[0,0],[0.25,0],[0.5,0],[0.75,0],[1,0],[1,0.25],[1,0.5],[1,0.75],[1,1],[0.75,1],[0.5,1],[0.25,1],[0,1],[0,0.75],[0,0.5],[0,0.25]];outlineConnect=0;gradientColor=none;html=1;whiteSpace=wrap;fontSize=12;fontStyle=0;container=1;pointerEvents=0;collapsible=0;recursiveResize=0;shape=mxgraph.aws4.group;grIcon=mxgraph.aws4.group_security_group;grStroke=0;strokeColor=#7AA116;fillColor=#F2F6E8;verticalAlign=top;align=left;spacingLeft=30;fontColor=#248814;dashed=0;" vertex="1" parent="_mHrZHotv5pdyZSLupDc-5">
          <mxGeometry x="335" y="30" width="325" height="250" as="geometry" />
        </mxCell>
        <mxCell id="_mHrZHotv5pdyZSLupDc-8" value="EFS - /mnt/efs" style="fillColor=none;strokeColor=#5A6C86;dashed=1;verticalAlign=top;fontStyle=0;fontColor=#5A6C86;whiteSpace=wrap;html=1;" vertex="1" parent="_mHrZHotv5pdyZSLupDc-5">
          <mxGeometry x="55" y="430" width="130" height="130" as="geometry" />
        </mxCell>
        <mxCell id="_mHrZHotv5pdyZSLupDc-9" value="CloudWatch Moniter&lt;div&gt;StatusCheckFailed&lt;br&gt;&lt;/div&gt;" style="fillColor=none;strokeColor=#5A6C86;dashed=1;verticalAlign=top;fontStyle=0;fontColor=#5A6C86;whiteSpace=wrap;html=1;" vertex="1" parent="_mHrZHotv5pdyZSLupDc-5">
          <mxGeometry x="432.5" y="430" width="130" height="130" as="geometry" />
        </mxCell>
      </root>
    </mxGraphModel>
  </diagram>
</mxfile>
